<svg xmlns="http://www.w3.org/2000/svg" viewBox="0 0 500 500"><g id="freepik--back-screens--inject-36"><path d="M203.71,80.3c-37.07,2.69-77.55,7.6-107.23,19l9.38,63.43s57.52-20.59,104.33-19.16Z" style="fill:#517FBE"></path><g style="opacity:0.8"><path d="M203.71,80.3c-37.07,2.69-77.55,7.6-107.23,19l9.38,63.43s57.52-20.59,104.33-19.16Z" style="fill:#fff"></path></g><path d="M201,135.2l-.36.06-1.05.15-4,.5c-1.76.21-3.91.47-6.4.83s-5.33.72-8.45,1.24c-12.51,1.93-29.73,5.12-48.43,10-6.5,1.68-12.77,3.41-18.5,5.21l-.29.08,0-.29c-2-14.54-3.94-27.08-5.43-36-.76-4.42-1.37-8-1.79-10.41-.21-1.19-.37-2.12-.49-2.78,0-.3-.08-.54-.11-.72a.8.8,0,0,1,0-.25,1,1,0,0,1,.07.24c0,.18.09.42.16.71.13.66.32,1.58.57,2.77.48,2.41,1.15,5.94,1.93,10.38,1.58,8.88,3.58,21.42,5.62,36l-.33-.2c5.75-1.82,12-3.56,18.53-5.24a472.25,472.25,0,0,1,48.5-9.82c3.13-.49,6-.82,8.47-1.15s4.65-.57,6.41-.75l4.06-.41,1.06-.09A1.39,1.39,0,0,1,201,135.2Z" style="fill:#517FBE"></path><path d="M202.3,119.78s-.14-.44-.43-1.27a13.31,13.31,0,0,0-1.91-3.27,16.61,16.61,0,0,0-4.5-3.95c-.48-.32-1.05-.56-1.6-.85a14.32,14.32,0,0,0-1.81-.65,9.9,9.9,0,0,0-4.13-.4,8.6,8.6,0,0,0-4.2,1.65,14.23,14.23,0,0,0-3.36,3.65c-2,2.89-3.21,6.41-4.71,10.06a12.49,12.49,0,0,1-3.49,5,6.55,6.55,0,0,1-2.89,1.39,5.87,5.87,0,0,1-3.26-.38c-4.22-1.67-6.1-6.54-10.37-8a8.37,8.37,0,0,0-6.33.52,8.1,8.1,0,0,0-2.51,1.94,13,13,0,0,0-1.67,2.68c-.95,1.88-1.67,4-3.28,5.45a4.88,4.88,0,0,1-2.88,1.29,5.75,5.75,0,0,1-3-.64,10.87,10.87,0,0,1-4.14-4.07,36,36,0,0,1-2.19-5,23.53,23.53,0,0,0-2.17-4.51,9,9,0,0,0-3.31-3.08,8.6,8.6,0,0,0-7.6-.22,12.85,12.85,0,0,0-4.83,3.48,9.37,9.37,0,0,0-1.81,3.31c-.26.83-.29,1.3-.33,1.29a5.66,5.66,0,0,1,.23-1.32,9,9,0,0,1,1.75-3.41,13,13,0,0,1,4.87-3.62,8.88,8.88,0,0,1,7.89.17,9.34,9.34,0,0,1,3.48,3.18,23.72,23.72,0,0,1,2.23,4.58,36.14,36.14,0,0,0,2.19,4.91,10.33,10.33,0,0,0,4,3.88,5.27,5.27,0,0,0,2.75.59,4.45,4.45,0,0,0,2.59-1.18c1.48-1.35,2.2-3.39,3.15-5.3a13.45,13.45,0,0,1,1.74-2.8,8.58,8.58,0,0,1,2.67-2.06,8.87,8.87,0,0,1,6.73-.55c2.27.75,3.9,2.5,5.41,4.08a15.13,15.13,0,0,0,5,4,5.37,5.37,0,0,0,3,.35,6.14,6.14,0,0,0,2.67-1.28,12.18,12.18,0,0,0,3.36-4.8c1.49-3.61,2.8-7.18,4.8-10.11a14.17,14.17,0,0,1,3.48-3.74,9.08,9.08,0,0,1,4.39-1.69,10.3,10.3,0,0,1,4.26.45,14.44,14.44,0,0,1,1.85.69,17.24,17.24,0,0,1,6.13,5,12.83,12.83,0,0,1,1.85,3.37,9.29,9.29,0,0,1,.26,1A2.12,2.12,0,0,1,202.3,119.78Z" style="fill:#517FBE"></path><path d="M104.05,111.45c0,.14-.46.35-1.08.47s-1.15.1-1.17,0,.45-.35,1.07-.47S104,111.31,104.05,111.45Z" style="fill:#517FBE"></path><path d="M105.69,123c.06.14-.3.43-.81.67s-1,.32-1,.19.31-.42.82-.66S105.63,122.9,105.69,123Z" style="fill:#517FBE"></path><path d="M107.74,135.69c0,.14-.33.39-.84.57s-1,.21-1,.08.33-.39.84-.57S107.69,135.56,107.74,135.69Z" style="fill:#517FBE"></path><path d="M110.2,148.13c0,.14-.39.4-1,.57s-1.06.22-1.1.08.38-.39.94-.57S110.15,148,110.2,148.13Z" style="fill:#517FBE"></path><path d="M180.11,88.36a5.19,5.19,0,0,1,1.21-.28c.8-.13,2-.31,3.45-.52,3-.42,7.21-1,12.26-1.59l.24,0,0,.24c.39,4.26.85,9.16,1.33,14.36l0,.22,0,.25-.25,0-16.57,2-.23,0,0-.22c-.46-4.35-.85-8-1.13-10.59-.12-1.22-.21-2.19-.29-2.93a8.4,8.4,0,0,1-.06-1,9,9,0,0,1,.18,1.06c.11.74.24,1.73.41,3,.33,2.58.78,6.16,1.33,10.46l-.25-.2,16.57-2.11-.23.28,0-.21c-.46-5.2-.89-10.11-1.27-14.37l.26.21Z" style="fill:#517FBE"></path><path d="M195.51,90.88c0,.16-2.85.15-6.33.53s-6.27,1-6.31.81a30.76,30.76,0,0,1,12.64-1.34Z" style="fill:#517FBE"></path><path d="M195.69,94.6c0,.15-2.66.25-5.91.57s-5.89.72-5.92.57a23.18,23.18,0,0,1,5.87-1.09A22.82,22.82,0,0,1,195.69,94.6Z" style="fill:#517FBE"></path><path d="M191.72,97.84a10.94,10.94,0,0,1-3.38.69,11.67,11.67,0,0,1-3.43.18,11.28,11.28,0,0,1,3.37-.69A11.74,11.74,0,0,1,191.72,97.84Z" style="fill:#517FBE"></path><path d="M384.43,99c-36.3-11.06-66.93-20.51-108-20.25l-6.28,64.63c42.71,3.78,57,6.58,96.42,20.85Z" style="fill:#517FBE"></path><g style="opacity:0.8"><path d="M384.43,99c-36.3-11.06-66.93-20.51-108-20.25l-6.28,64.63c42.71,3.78,57,6.58,96.42,20.85Z" style="fill:#fff"></path></g><path d="M302.25,110.07l1.6-13.71a16.05,16.05,0,0,0-11.19,3.1A16.82,16.82,0,0,0,285.78,113a19.67,19.67,0,0,0,.05,2,.07.07,0,0,0,0,0h0l16-1.8Z" style="fill:#517FBE"></path><path d="M318.8,107.83A15.51,15.51,0,0,0,307.39,97l-.48-.1-.31-.07-.94-.14h-.08L304,110.34l-.38,3.22,15.12,5.52h0a17.32,17.32,0,0,0,.78-3.51A18.87,18.87,0,0,0,318.8,107.83Z" style="fill:#517FBE"></path><g style="opacity:0.30000000000000004"><path d="M318.8,107.83A15.51,15.51,0,0,0,307.39,97l-.48-.1-.31-.07-.94-.14h-.08L304,110.34l-.38,3.22,15.12,5.52h0a17.32,17.32,0,0,0,.78-3.51A18.87,18.87,0,0,0,318.8,107.83Z"></path></g><path d="M302.48,115.1l-16,1.8c.67,7.76,6.33,14.19,13.93,15.13s14.73-4,17.23-11.4l-15.12-5.52" style="fill:#517FBE"></path><path d="M370.4,111.28a8.62,8.62,0,0,1-1.41-.57c-.89-.41-2.19-1-3.81-1.65a116.38,116.38,0,0,0-12.88-4.52,117.56,117.56,0,0,0-13.34-3c-1.72-.28-3.13-.48-4.1-.61a7.76,7.76,0,0,1-1.5-.26,9.78,9.78,0,0,1,1.53.06c1,.07,2.39.22,4.13.45a96.28,96.28,0,0,1,26.31,7.5c1.6.72,2.88,1.34,3.75,1.8A9,9,0,0,1,370.4,111.28Z" style="fill:#517FBE"></path><path d="M369.3,118a9.49,9.49,0,0,1-1.41-.58c-.89-.4-2.19-1-3.81-1.64a113.36,113.36,0,0,0-26.22-7.48c-1.72-.28-3.13-.48-4.1-.61a10.4,10.4,0,0,1-1.5-.26,7.39,7.39,0,0,1,1.53.06c1,.06,2.39.21,4.13.44a96.62,96.62,0,0,1,13.42,2.82,98.25,98.25,0,0,1,12.89,4.69c1.6.72,2.88,1.34,3.75,1.8A7.43,7.43,0,0,1,369.3,118Z" style="fill:#517FBE"></path><path d="M368.2,124.77a8.62,8.62,0,0,1-1.41-.57c-.89-.4-2.19-1-3.81-1.65A118.49,118.49,0,0,0,350.1,118a119.79,119.79,0,0,0-13.34-3c-1.72-.27-3.12-.48-4.1-.61a7.76,7.76,0,0,1-1.5-.26,9.78,9.78,0,0,1,1.53.06c1,.07,2.39.22,4.13.45a96.62,96.62,0,0,1,13.42,2.82,95.42,95.42,0,0,1,12.89,4.69c1.6.72,2.88,1.34,3.75,1.8A7.91,7.91,0,0,1,368.2,124.77Z" style="fill:#517FBE"></path><path d="M366,131.52a9.82,9.82,0,0,1-1.37-.57c-.86-.41-2.12-1-3.68-1.64a107.88,107.88,0,0,0-25.44-7.49c-1.68-.28-3-.48-4-.61a7.46,7.46,0,0,1-1.46-.26,8,8,0,0,1,1.49.06c.95.06,2.32.21,4,.45a91.3,91.3,0,0,1,13.05,2.82A93.27,93.27,0,0,1,361.1,129c1.55.72,2.79,1.34,3.62,1.8A7.8,7.8,0,0,1,366,131.52Z" style="fill:#517FBE"></path><path d="M361.22,136.9a7.64,7.64,0,0,1-1.23-.49l-3.31-1.47a80.57,80.57,0,0,0-22.82-6.51l-3.59-.5a8.08,8.08,0,0,1-1.31-.23,5.66,5.66,0,0,1,1.33,0c.86,0,2.09.16,3.61.33a69.5,69.5,0,0,1,22.93,6.54c1.39.66,2.49,1.22,3.25,1.63A6.3,6.3,0,0,1,361.22,136.9Z" style="fill:#517FBE"></path><path d="M345.09,137.66a17,17,0,0,1-2.58-.53c-1.58-.37-3.77-.85-6.21-1.26s-4.67-.73-6.28-1a15.43,15.43,0,0,1-2.6-.45,12.19,12.19,0,0,1,2.64.08c1.63.14,3.87.38,6.33.81a56.45,56.45,0,0,1,6.21,1.42A11.6,11.6,0,0,1,345.09,137.66Z" style="fill:#517FBE"></path><path d="M282.68,86.37l.84-.05,2.5-.08c2.2,0,5.4,0,9.48.21a151.6,151.6,0,0,1,33.3,6l.18.06,0,.19c-2.5,14.33-5.48,31.36-8.66,49.58-.13.74-.26,1.48-.39,2.2l0,.28-.28-.07a216.25,216.25,0,0,0-22.23-4.59c-7.17-1.1-14-1.88-20.38-2.28l-.25,0,0-.24c1.75-15.29,3.22-28.09,4.25-37.1.52-4.46.94-8,1.22-10.4.14-1.18.26-2.09.33-2.73,0-.29.07-.52.09-.7s0-.23,0-.22a1.18,1.18,0,0,1,0,.25c0,.18,0,.42-.07.72-.06.65-.16,1.58-.28,2.78-.25,2.44-.63,6-1.1,10.46-1,9-2.36,21.75-4,37l-.22-.25c6.39.38,13.25,1.15,20.43,2.24a217.17,217.17,0,0,1,22.29,4.58l-.32.21c.13-.72.26-1.46.39-2.2,3.21-18.22,6.21-35.24,8.73-49.56l.15.25a154.65,154.65,0,0,0-33.18-6.13c-4.06-.27-7.28-.34-9.44-.33h-3.36Z" style="fill:#517FBE"></path></g><g id="freepik--front-screens--inject-36"><path d="M305.65,274c-38.77,10.26-76.14,9.48-116.87,0L184,199.52c42.09,8.19,84.34,7.15,121.63-1.76Z" style="fill:#517FBE"></path><g style="opacity:0.8"><path d="M305.65,274c-38.77,10.26-76.14,9.48-116.87,0L184,199.52c42.09,8.19,84.34,7.15,121.63-1.76Z" style="fill:#fff"></path></g><path d="M299.64,262.65a1,1,0,0,1-.25.12l-.73.31c-.65.26-1.59.68-2.84,1.13a107.27,107.27,0,0,1-10.73,3.36,140.27,140.27,0,0,1-36.78,4.2,214.77,214.77,0,0,1-36.86-3.94c-4.67-.89-8.42-1.71-11-2.31-1.29-.29-2.29-.54-3-.71l-.77-.2c-.17-.05-.26-.08-.25-.09l.27,0,.78.15,3,.61c2.59.54,6.36,1.31,11,2.14a226.31,226.31,0,0,0,36.8,3.79,145,145,0,0,0,36.69-4c4.59-1.16,8.25-2.32,10.75-3.21,1.26-.41,2.21-.8,2.87-1l.75-.26A.75.75,0,0,1,299.64,262.65Z" style="fill:#517FBE"></path><path d="M242.67,265.68a25.39,25.39,0,0,1-14.92-.5v-26.5a37.48,37.48,0,0,1,14.92,0Z" style="fill:#517FBE"></path><path d="M266.77,264.11a1.07,1.07,0,0,1,0-.21c0-.15,0-.34,0-.57,0-.54,0-1.28-.07-2.22,0-1.95-.09-4.74-.16-8.23-.1-7-.25-16.87-.42-28.28l.2.24a40.33,40.33,0,0,0-15.45,0l.21-.25v.52c.16,15.66.31,29.81.41,39.91l-.15-.18a35.76,35.76,0,0,0,6.51.8,24.47,24.47,0,0,0,4.91-.41,23,23,0,0,0,3-.79l.75-.26a1.07,1.07,0,0,1,.28-.08l-.24.11-.76.33a21.16,21.16,0,0,1-3,.89,23.47,23.47,0,0,1-4.95.49,34.16,34.16,0,0,1-6.58-.72l-.14,0V265c-.15-10.1-.35-24.24-.57-39.9v-.75l.22,0a40.31,40.31,0,0,1,15.64,0l.2.05v.2c.09,11.46.16,21.35.22,28.41,0,3.47,0,6.24,0,8.19,0,.92,0,1.64,0,2.17,0,.22,0,.41,0,.56S266.78,264.11,266.77,264.11Z" style="fill:#517FBE"></path><path d="M289.71,261c-4,2.16-9.25,2.45-14.93,2.12V219.34a31.92,31.92,0,0,1,14.93,0Z" style="fill:#517FBE"></path><path d="M219,263.52s0-.41-.05-1.13,0-1.79-.06-3.06c0-2.66-.07-6.35-.11-10.74l.14.21a33.36,33.36,0,0,0-14.37-2.39h0l.24-.26c0,5.47,0,10.58,0,14.93l-.13-.2a27.89,27.89,0,0,0,5.76,1.64c1.77.32,3.32.5,4.61.63l3,.25a9.39,9.39,0,0,1,1.06.12,7.9,7.9,0,0,1-1.06,0c-.7,0-1.71,0-3-.13s-2.86-.24-4.64-.53a26.76,26.76,0,0,1-5.88-1.59l-.13-.06v-.15c0-4.35,0-9.46,0-14.93v-.24h.26a33.13,33.13,0,0,1,14.58,2.49l.15.05v.16c0,4.45-.09,8.19-.12,10.89,0,1.25,0,2.25-.06,3A6,6,0,0,1,219,263.52Z" style="fill:#517FBE"></path><path d="M226,224.79a15,15,0,0,1-2.92.18c-1.81,0-4.31,0-7.06-.17s-5.23-.42-7-.66a14.77,14.77,0,0,1-2.88-.52,18.33,18.33,0,0,1,2.91.16c1.8.14,4.28.34,7,.5s5.23.26,7,.32A19.44,19.44,0,0,1,226,224.79Z" style="fill:#517FBE"></path><path d="M223.77,228.05a12.86,12.86,0,0,1-2.56,0c-1.58-.08-3.76-.22-6.17-.4s-4.59-.38-6.16-.55a12.67,12.67,0,0,1-2.53-.38,12.86,12.86,0,0,1,2.56,0c1.59.08,3.76.22,6.17.4s4.58.38,6.15.55A13.07,13.07,0,0,1,223.77,228.05Z" style="fill:#517FBE"></path><path d="M229.23,232.32s0-.34,0-.93.05-1.5.1-2.58c.1-2.26.25-5.44.44-9.35l.19.21a213.7,213.7,0,0,1-27.63-1.54l.29-.24h0v.4l0,.42-.05.84c0,.56-.06,1.12-.1,1.67-.06,1.11-.12,2.2-.19,3.27-.13,2.15-.25,4.23-.37,6.22l-.21-.26c8,1,14.89,1.4,19.78,1.59l5.73.17,1.5.05.55,0a2.9,2.9,0,0,1-.5,0c-.34,0-.88,0-1.55.05-1.34,0-3.29,0-5.74,0-4.9-.1-11.82-.46-19.83-1.41l-.23,0v-.24c.11-2,.23-4.07.35-6.22.06-1.07.12-2.16.19-3.27l.09-1.67,0-.84,0-.42v-.4h0l.29-.24A236,236,0,0,0,230,219.29h.2v.2c-.27,3.94-.49,7.16-.65,9.44-.08,1.06-.15,1.91-.2,2.53A4.45,4.45,0,0,1,229.23,232.32Z" style="fill:#517FBE"></path><path d="M232.64,237.93a11.83,11.83,0,0,1-1.93-2.67,9.57,9.57,0,0,1-1.48-2.94,11.83,11.83,0,0,1,1.93,2.67A9.57,9.57,0,0,1,232.64,237.93Z" style="fill:#517FBE"></path><path d="M70.64,141l12.67,76.68s19.35,36.22,70.75,44.38l-8.29-68.44S98.23,178.9,70.64,141Z" style="fill:#517FBE"></path><g style="opacity:0.8"><path d="M70.64,141l12.67,76.68s19.35,36.22,70.75,44.38l-8.29-68.44S98.23,178.9,70.64,141Z" style="fill:#fff"></path></g><path d="M147.43,256.58l-.32-.08-1-.27-3.62-1.11c-1.57-.5-3.52-1-5.69-1.9l-3.49-1.33c-1.25-.47-2.56-1-3.89-1.6-2.67-1.22-5.64-2.48-8.66-4.18s-6.24-3.53-9.52-5.62a95.31,95.31,0,0,1-19.1-16.55,56.64,56.64,0,0,1-6.89-9.61l0,0v0l-5.8-37.5c-.7-4.68-1.27-8.43-1.66-11.06l-.42-3-.1-.77a1.09,1.09,0,0,1,0-.27,1,1,0,0,1,.06.26l.15.77.51,3c.43,2.62,1,6.37,1.81,11,1.5,9.42,3.6,22.54,6,37.47l0-.07a57.26,57.26,0,0,0,6.82,9.5,96,96,0,0,0,19,16.49c3.26,2.1,6.37,4.07,9.45,5.64s5.95,3,8.61,4.22c1.32.65,2.63,1.16,3.86,1.63L137,253c2.15.91,4.09,1.45,5.64,2l3.59,1.2.93.32A1.36,1.36,0,0,1,147.43,256.58Z" style="fill:#517FBE"></path><path d="M142.91,234.32s0,.06-.17.16l-.55.44-2.13,1.66L132,242.77l-.12.1-.1-.14c-2.72-3.75-6.07-8.39-9.87-13.66l.3.05-7.57,5.4-.25.18-.11-.3c-3-8-6.27-17-9.76-26.47l-1.4-3.81.47,0-6.16,12.24-.27.53-.19-.56c-5.37-15.46-9.92-28.6-12.88-37.13l.27,0c-.81,3.42-1.45,6.11-1.89,8-.22.9-.4,1.6-.52,2.1l-.14.54a.62.62,0,0,1-.07.18l0-.19c0-.14.06-.32.1-.54l.45-2.12c.41-1.89,1-4.59,1.76-8l.11-.48.17.47c3,8.51,7.63,21.62,13.08,37.05l-.46,0,6.15-12.24.27-.54.21.56,1.4,3.81c3.47,9.48,6.77,18.47,9.71,26.49l-.36-.11,7.6-5.36.17-.12.13.17L132,242.55l-.23,0,8.17-6.07,2.18-1.6.57-.4Z" style="fill:#517FBE"></path><path d="M141.14,197.55a4.68,4.68,0,0,1-1.08-.24c-.68-.19-1.67-.49-2.87-.89A94,94,0,0,1,128,192.8a98.07,98.07,0,0,1-8.83-4.53c-1.09-.64-2-1.18-2.56-1.57a4.53,4.53,0,0,1-.89-.65,4.64,4.64,0,0,1,1,.48l2.64,1.42c2.23,1.19,5.34,2.79,8.86,4.38s6.77,2.86,9.14,3.75c1.11.4,2,.75,2.81,1A4,4,0,0,1,141.14,197.55Z" style="fill:#517FBE"></path><path d="M143.18,200.73a10.35,10.35,0,0,1-2.48-.44,57.41,57.41,0,0,1-5.83-1.74,58.17,58.17,0,0,1-5.61-2.35,10.75,10.75,0,0,1-2.19-1.23,13.68,13.68,0,0,1,2.35.9c1.43.59,3.41,1.39,5.63,2.19s4.26,1.43,5.75,1.88A13.64,13.64,0,0,1,143.18,200.73Z" style="fill:#517FBE"></path><path d="M122.93,229.09c0,.64-.39,1.15-.87,1.15s-.86-.51-.86-1.15.39-1.15.86-1.15S122.93,228.46,122.93,229.09Z" style="fill:#517FBE"></path><ellipse cx="103.26" cy="204.85" rx="0.86" ry="1.15" style="fill:#517FBE"></ellipse><path d="M85.13,179.56c0,.63-.39,1.15-.86,1.15s-.86-.52-.86-1.15.38-1.15.86-1.15S85.13,178.93,85.13,179.56Z" style="fill:#517FBE"></path><path d="M406,154.64l-6.35,77.9S381.08,265.85,330,267.12l6.31-78.43S380.88,186.88,406,154.64Z" style="fill:#517FBE"></path><path d="M405,150.58c-1.66-5.39-5.7-13.08-15.3-14.68L378.38,240.68s21.31-4.25,21.88-15.93c.05-1,4.31-53.09,5.38-66A21.11,21.11,0,0,0,405,150.58Z" style="fill:#517FBE"></path><g style="opacity:0.8"><path d="M406,154.64l-6.35,77.9S381.08,265.85,330,267.12l6.31-78.43S380.88,186.88,406,154.64Z" style="fill:#fff"></path></g><path d="M404.45,174.5a46.14,46.14,0,0,0-8.13,25.19c-.05,2.59.1,5.26-.89,7.65s-3.55,4.39-6,3.71-3.77-3.8-6.05-5.24a6.75,6.75,0,0,0-6.85.15,11.53,11.53,0,0,0-4.5,5.47c-1.85,4.27-2,9.09-3.34,13.54s-4.72,8.94-9.38,9.14c-1.7.07-3.38-.44-5.08-.39-3.59.11-6.71,2.78-8.38,6s-2.18,6.83-2.66,10.39c0,0,27.22,2.6,57.77-33.48Z" style="fill:#517FBE"></path><path d="M361.18,221.75c0,1-.48,1.75-1.07,1.75s-1.06-.78-1.06-1.75.47-1.75,1.06-1.75S361.18,220.79,361.18,221.75Z" style="fill:#517FBE"></path><path d="M374,189.37c0,1-.48,1.75-1.07,1.75s-1.06-.79-1.06-1.75.47-1.75,1.06-1.75S374,188.4,374,189.37Z" style="fill:#517FBE"></path><path d="M403.84,178.26a2.4,2.4,0,0,1-.17.44l-.58,1.27c-.54,1.13-1.29,2.73-2.24,4.75l-8.12,16.91-.11.23-.22-.14-19.25-12.18.38-.12c-.25.62-.53,1.29-.8,2L360.3,221.83l-.09.21-.19-.11c-4.8-2.7-8.72-4.87-11.44-6.35-1.37-.74-2.43-1.31-3.16-1.68l-.83-.4-.29-.13a23.22,23.22,0,0,1,4.38,2c2.76,1.42,6.7,3.54,11.53,6.2l-.28.1,12.32-30.49c.27-.67.55-1.34.8-2l.12-.29.26.17,19.22,12.24-.33.09c3.41-6.93,6.27-12.72,8.29-16.82L403,179.9l.64-1.23A2.77,2.77,0,0,1,403.84,178.26Z" style="fill:#517FBE"></path></g></svg>